<svg xmlns="http://www.w3.org/2000/svg" width="16" height="16" fill="none"><path fill="#fff" fill-rule="evenodd" d="M6.507 10.41a.496.496 0 0 1-.353-.147 2.583 2.583 0 0 1-.763-1.84c0-1.44 1.17-2.61 2.609-2.61.692 0 1.364.279 1.843.766a.5.5 0 0 1-.712.702A1.591 1.591 0 0 0 8 6.813c-.887 0-1.61.722-1.61 1.61 0 .428.168.83.47 1.133a.5.5 0 0 1-.353.854ZM8.378 10.993A.5.5 0 0 1 8.29 10 1.606 1.606 0 0 0 9.578 8.71a.5.5 0 0 1 .985.177 2.613 2.613 0 0 1-2.095 2.098.522.522 0 0 1-.09.008Z" clip-rule="evenodd"/><mask id="a" width="12" height="10" x="1" y="3" maskUnits="userSpaceOnUse" style="mask-type:luminance"><path fill="#fff" fill-rule="evenodd" d="M1.333 3.082h10.724v9.399H1.333V3.082Z" clip-rule="evenodd"/></mask><g mask="url(#a)"><path fill="#fff" fill-rule="evenodd" d="M4.436 12.48a.503.503 0 0 1-.309-.106C3 11.49 2.047 10.191 1.374 8.621a.497.497 0 0 1 0-.395c.68-1.576 1.64-2.88 2.773-3.772 2.31-1.829 5.386-1.835 7.72.013a.5.5 0 1 1-.62.784c-1.978-1.565-4.525-1.56-6.481-.012-.957.754-1.78 1.851-2.386 3.186.6 1.326 1.415 2.417 2.365 3.162a.5.5 0 0 1-.309.894Z" clip-rule="evenodd"/></g><mask id="b" width="10" height="9" x="5" y="5" maskUnits="userSpaceOnUse" style="mask-type:luminance"><path fill="#fff" fill-rule="evenodd" d="M5.812 5.826h8.854v7.966H5.813V5.826Z" clip-rule="evenodd"/></mask><g mask="url(#b)"><path fill="#fff" fill-rule="evenodd" d="M8 13.792a5.848 5.848 0 0 1-1.846-.301.5.5 0 0 1 .316-.95 4.83 4.83 0 0 0 1.53.25c2.285 0 4.374-1.627 5.62-4.368a9.666 9.666 0 0 0-1.054-1.796.5.5 0 0 1 .799-.601c.482.64.906 1.381 1.26 2.198a.495.495 0 0 1 0 .397c-1.397 3.238-3.874 5.17-6.625 5.17Z" clip-rule="evenodd"/></g><mask id="c" width="12" height="13" x="2" y="2" maskUnits="userSpaceOnUse" style="mask-type:luminance"><path fill="#fff" fill-rule="evenodd" d="M2.242 2.666h11.516v11.515H2.242V2.666Z" clip-rule="evenodd"/></mask><g mask="url(#c)"><path fill="#fff" fill-rule="evenodd" d="M2.742 14.182a.5.5 0 0 1-.353-.853L12.905 2.813a.5.5 0 1 1 .706.707L3.095 14.035a.496.496 0 0 1-.353.147Z" clip-rule="evenodd"/></g></svg>